<?xml version="1.0" encoding="UTF-8"?>
<svg width="47px" height="50px" viewBox="0 0 47 50" version="1.1" xmlns="http://www.w3.org/2000/svg" xmlns:xlink="http://www.w3.org/1999/xlink">
    <g id="Page-1" stroke="none" stroke-width="1" fill="none" fill-rule="evenodd">
        <g id="logo" fill-rule="nonzero" fill="#FFFFFF">
            <path d="M22.516,38.74 L17.156,46.895 C16.2691597,48.2319749 14.7753287,49.0401805 13.171,49.051 C12.2728965,49.0542301 11.394805,48.7858178 10.652,48.281 C9.60280867,47.5712175 8.89325088,46.459715 8.69105305,45.2092312 C8.48885522,43.9587474 8.81196312,42.6802673 9.584,41.676 L16.964,32.106 C17.4896757,31.4698353 18.4258612,31.3668453 19.0772609,31.8735196 C19.7286606,32.3801939 19.8592316,33.3129326 19.372,33.979 L11.992,43.55 C11.7296042,43.8944121 11.6208813,44.3318017 11.6914795,44.7589868 C11.7620777,45.1861719 12.0057452,45.5653241 12.365,45.807 C12.699,46.027 13.107,46.104 13.499,46.024 C13.962486,45.9308868 14.3700213,45.657518 14.632,45.264 L19.992,37.077 C20.2705745,36.5875478 20.7982354,36.2936385 21.3610269,36.3144465 C21.9238184,36.3352544 22.428335,36.6673261 22.6700056,37.1760132 C22.9116761,37.6847004 22.850391,38.285577 22.511,38.735 L22.516,38.74 L22.516,38.74 Z M43.578,1.965 C41.563,0.52 38.823,0.399 35.906,1.633 C32.9941714,2.96300511 30.4985614,5.05938663 28.686,7.698 C26.062,11.381 24.838,15.618 25.412,19.033 C25.5197533,19.7089263 25.4593051,20.4009899 25.236,21.048 C24.9675897,21.8383195 25.3906806,22.6965895 26.181,22.9649999 C26.9713195,23.2334103 27.8295896,22.8103194 28.098,22.02 C28.4831808,20.8985908 28.5852064,19.6993608 28.395,18.529 C27.956,15.924 29.015,12.449 31.15,9.461 C32.64047,7.27404599 34.6970301,5.5330555 37.1,4.424 C38.208,3.955 40.299,3.336 41.84,4.424 C43.382,5.512 43.477,7.704 43.397,8.902 C43.1280603,11.5377542 42.1474026,14.0507546 40.56,16.172 C38.425,19.194 35.478,21.305 32.873,21.738 C31.4008608,21.9807604 30.0403109,22.6743124 28.979,23.723 C28.4222341,24.3124848 28.4300074,25.2363401 28.9966135,25.8163729 C29.5632197,26.3964057 30.4866396,26.4258099 31.089,25.883 C31.228,25.749 31.374,25.623 31.529,25.506 C32.0615397,25.0963012 32.6852733,24.8214878 33.347,24.705 C36.747,24.135 40.379,21.597 43.004,17.909 C44.9148527,15.3296147 46.0868224,12.2783449 46.394,9.083 C46.606,5.925 45.604,3.391 43.578,1.945 L43.578,1.965 L43.578,1.965 Z M21.806,20.5 C22.7176738,18.3387077 22.4428443,15.8591854 21.08,13.95 L12.093,1.407 C11.6061627,0.732225429 10.6654064,0.578024747 9.98862545,1.06206903 C9.31184453,1.54611332 9.153757,2.4862243 9.635,3.165 L18.612,15.719 C19.372875,16.784327 19.5183006,18.1709963 18.995,19.371 C18.5724113,20.3012208 18.6941347,21.3882835 19.312,22.202 L35.936,43.702 C36.2579793,44.1175316 36.3271754,44.675785 36.1163923,45.157353 C35.9056093,45.6389209 35.4485398,45.9668271 34.9248234,46.0121964 C34.4011071,46.0575656 33.8944573,45.8131458 33.604,45.375 L18.54,22.755 C17.9656508,21.9089762 16.9732142,21.446556 15.956,21.551 C14.6478433,21.6768685 13.3704183,21.1027877 12.596,20.041 L3.614,7.486 C3.12826556,6.80724204 2.18425796,6.65076556 1.5055,7.1365 C0.826742042,7.62223444 0.670265563,8.56624204 1.156,9.245 L10.148,21.798 C11.5209675,23.7004042 13.7821343,24.7549089 16.122,24.584 L31.089,47.077 C31.7564299,48.0870285 32.8090925,48.7789228 34.001,48.991 C35.8183978,49.3284012 37.6554923,48.5092519 38.6190803,46.9318259 C39.5826683,45.3544 39.4728422,43.3459528 38.343,41.883 L21.805,20.499 L21.806,20.5 Z M14.869,18.484 C15.4349653,18.4826591 15.9527273,18.1651462 16.2105426,17.6613111 C16.4683579,17.157476 16.4229929,16.5518078 16.093,16.092 L7.897,4.364 C7.58742937,3.9211693 7.06512694,3.67713083 6.52683899,3.72381151 C5.98855104,3.7704922 5.51605631,4.10080013 5.28733899,4.59031151 C5.05862167,5.07982289 5.10842937,5.6541693 5.418,6.097 L13.63,17.825 C13.913,18.229 14.375,18.47 14.869,18.469 L14.869,18.484 Z" id="Shape"></path>
        </g>
    </g>
</svg>